<svg viewBox="0 0 50 55" fill="none" xmlns="http://www.w3.org/2000/svg"><path fill-rule="evenodd" clip-rule="evenodd" d="M45.39 16.795l-1.633 1.634a19.487 19.487 0 00-12.8-4.812c-3.178 0-6.354.817-9.078 2.269l6.899-6.899c.545.363 1.18.545 1.816.545.907 0 1.816-.363 2.541-1.09a3.618 3.618 0 000-5.174c-.727-.727-1.634-1.09-2.54-1.09-.908 0-1.817.363-2.542 1.09-1.18 1.272-1.362 3.086-.545 4.448l-8.715 8.715-1.634-1.634-4.447 4.447 1.633 1.634-8.896 8.897a3.277 3.277 0 00-1.817-.544c-.907 0-1.816.362-2.54 1.089a3.618 3.618 0 000 5.175c.726.634 1.633.999 2.54.999.908 0 1.817-.363 2.542-1.09 1.18-1.18 1.361-2.996.544-4.447l6.899-6.9c-3.63 6.992-2.814 15.706 2.541 21.878l-1.634 1.725 4.54 4.447 4.448-4.447-4.448-4.448-1.544 1.544c-5.265-6.174-5.537-15.07-1.09-21.605l.727.726 4.54-4.447-.817-.727c2.905-2.088 6.446-3.178 10.077-3.178 4.267 0 8.26 1.544 11.528 4.267l-1.634 1.544 4.54 4.448 4.447-4.448-4.447-4.54v-.001zM20.97 47.66l-1.906 1.906-1.907-1.906 1.907-1.907 1.906 1.907zm8.353-43.03a1.794 1.794 0 011.271-.545c.454 0 .907.182 1.271.545.727.727.727 1.816 0 2.541a1.794 1.794 0 01-1.27.545c-.455 0-.908-.182-1.272-.545-.727-.635-.727-1.816 0-2.541zM4.903 34.133a1.794 1.794 0 01-1.272.544c-.455 0-.908-.182-1.272-.544-.362-.273-.545-.727-.545-1.272 0-.454.183-.907.545-1.271a1.787 1.787 0 011.272-.545c.454 0 .907.182 1.271.545.727.727.727 1.906 0 2.541v.002zm12.164-12.8l-1.906-1.907 1.906-1.906 1.907 1.906-1.907 1.907zm28.324 1.906l-1.907-1.906 1.907-1.907 1.906 1.907-1.906 1.906z" fill="#00B2A0"/></svg>