<svg viewBox="0 0 50 51" fill="none" xmlns="http://www.w3.org/2000/svg"><path fill-rule="evenodd" clip-rule="evenodd" d="M.557 19.525v11.443h4.905v9.808h1.634v-9.808H19.67l11.939 9.661V9.572l-12.015 9.953H.558zm1.636 9.807V21.16h6.538v8.172H2.193zm18.444-8.548l9.336-7.736v24.155l-9.726-7.87h-9.883v-8.172h9.818l.453-.375.002-.002zm22.283-9.772l-1.175 1.176c3.825 2.994 6.298 7.642 6.298 12.865 0 5.363-2.608 10.117-6.61 13.098l1.184 1.184c4.291-3.285 7.061-8.46 7.061-14.282 0-5.681-2.64-10.746-6.756-14.04h-.001z" fill="#00B2A0"/><path fill-rule="evenodd" clip-rule="evenodd" d="M37.669 16.282L36.48 17.47c2.523 1.595 4.208 4.4 4.208 7.6 0 3.34-1.835 6.254-4.547 7.804l1.191 1.191c2.994-1.88 4.992-5.2 4.992-8.995a10.61 10.61 0 00-4.655-8.788h-.001z" fill="#00B2A0"/></svg>